<svg width="70" height="70" viewBox="0 0 70 70" fill="none" xmlns="http://www.w3.org/2000/svg">
<path d="M19.1853 12.5651C20.2657 11.8021 19.0827 10.1272 18.0022 10.8901C10.1756 16.4176 5.50293 25.4308 5.50293 35C5.50293 42.879 8.57104 50.2864 14.1423 55.8575C19.7136 61.4288 27.121 64.4971 35 64.4971C51.1004 64.4971 64.4971 51.0954 64.4971 35C64.4971 27.121 61.429 19.7136 55.8577 14.1425C50.2864 8.57117 42.879 5.50293 35 5.50293C30.9684 5.50293 27.0606 6.30205 23.3849 7.87814C22.1692 8.39945 22.9774 10.284 24.1932 9.76295C27.6119 8.29705 31.2479 7.55371 35 7.55371C36.5229 7.55371 38.0167 7.68045 39.4728 7.92012L25.0838 32.8945L15.2914 15.9045C16.4728 14.683 17.7732 13.5625 19.1853 12.5651ZM9.30234 44.6387H38.1916L28.3192 61.6224C19.5523 59.4215 12.4462 52.993 9.30234 44.6387ZM39.3384 27.4121L43.7618 35L39.3809 42.5879H30.6707L26.2678 34.9487L30.6191 27.4121H39.3384ZM35 62.4463C33.4447 62.4463 31.9199 62.3142 30.4346 62.0644L45.0189 36.9744L54.9998 53.7755C49.9897 59.1091 42.8777 62.4463 35 62.4463ZM56.416 52.1443L42.6184 28.9183L41.7488 27.4122H61.3787C62.0732 29.8231 62.4463 32.3688 62.4463 35.0001C62.4463 41.4812 60.1867 47.4435 56.416 52.1443ZM60.6977 25.3613H31.7911L41.5892 8.35516C50.3981 10.5342 57.5429 16.978 60.6977 25.3613ZM28.2512 42.5879H8.62135C7.92682 40.177 7.55371 37.6313 7.55371 35C7.55371 28.5558 9.83268 22.3833 13.8523 17.5142L28.2512 42.5879Z" fill="black"/>
<path d="M59.7488 10.2512C53.1382 3.64068 44.3488 0 35 0C25.6512 0 16.8618 3.64068 10.2512 10.2512C3.64068 16.8619 0 25.6512 0 35C0 44.3488 3.64068 53.1381 10.2512 59.7488C16.8618 66.3593 25.6512 70 35 70C40.9132 70 46.7578 68.4977 51.9021 65.6555C53.0599 65.0159 52.0681 63.2207 50.9104 63.8604C46.0689 66.5354 40.5672 67.9492 35 67.9492C26.1989 67.9492 17.9246 64.522 11.7013 58.2987C5.47805 52.0754 2.05078 43.8011 2.05078 35C2.05078 26.1989 5.47805 17.9246 11.7013 11.7013C17.9246 5.47805 26.1989 2.05078 35 2.05078C43.8011 2.05078 52.0754 5.47805 58.2987 11.7013C64.522 17.9246 67.9492 26.1989 67.9492 35C67.9492 45.073 63.4304 54.4607 55.5513 60.756C54.5178 61.5817 55.7981 63.1839 56.8314 62.3582C65.2004 55.6716 70 45.6999 70 35C70 25.6512 66.3593 16.8619 59.7488 10.2512Z" fill="black"/>
</svg>
