<svg width="70" height="70" viewBox="0 0 70 70" fill="none" xmlns="http://www.w3.org/2000/svg">
<path d="M59.7488 10.2512C53.1382 3.64068 44.3488 0 35 0C25.6512 0 16.8619 3.64068 10.2512 10.2512C3.64068 16.8618 0 25.6512 0 35C0 44.3488 3.64068 53.1382 10.2512 59.7488C16.8619 66.3593 25.6512 70 35 70C40.8573 70 46.6532 68.5244 51.7613 65.7329C52.9219 65.0986 51.9386 63.299 50.7779 63.9334C45.9704 66.5606 40.5147 67.9492 35 67.9492C26.1989 67.9492 17.9246 64.522 11.7013 58.2987C5.47805 52.0754 2.05078 43.8011 2.05078 35C2.05078 26.1989 5.47805 17.9246 11.7013 11.7013C17.9246 5.47805 26.1989 2.05078 35 2.05078C43.8011 2.05078 52.0755 5.47805 58.2987 11.7013C64.5218 17.9246 67.9492 26.1989 67.9492 35C67.9492 40.2158 66.7663 45.2041 64.4332 49.8262C62.2077 54.2354 58.953 58.1584 55.0208 61.1711C53.9708 61.9754 55.2185 63.604 56.2681 62.7989C60.4438 59.5997 63.9002 55.4333 66.2639 50.7503C68.7431 45.8389 70 40.5398 70 35C70 25.6512 66.3593 16.8618 59.7488 10.2512Z" fill="black"/>
<path d="M55.3981 14.6017C55.5984 14.8019 55.8607 14.9019 56.1232 14.9019C56.9929 14.9019 57.4735 13.7769 56.8484 13.1514C51.0124 7.31555 43.2532 4.10156 34.9998 4.10156C33.6772 4.10156 33.6772 6.15234 34.9998 6.15234C42.7054 6.15234 49.9497 9.15305 55.3981 14.6017Z" fill="black"/>
<path d="M14.6013 55.3979C13.6525 54.4494 12.2439 55.9407 13.1513 56.8481C18.9871 62.6841 26.7464 65.8981 34.9997 65.8981C36.3225 65.8981 36.3225 63.8473 34.9997 63.8473C27.2943 63.8473 20.05 60.8466 14.6013 55.3979Z" fill="black"/>
<path d="M60.7541 35.0004C60.7541 20.7994 49.2008 9.24609 34.9999 9.24609C32.4793 9.24609 29.9883 9.60963 27.5961 10.3264C26.3292 10.7063 26.9176 12.6697 28.1848 12.291C30.386 11.6313 32.6789 11.2969 34.9999 11.2969C48.07 11.2969 58.7033 21.9302 58.7033 35.0004C58.7033 48.0705 48.07 58.7038 34.9999 58.7038C21.9297 58.7038 11.2964 48.0705 11.2964 35.0004C11.2964 30.8065 12.4059 26.6861 14.5048 23.0842C16.5424 19.5874 19.4607 16.6493 22.944 14.5874C24.0822 13.9135 23.0381 12.1496 21.8993 12.8227C18.1159 15.0622 14.9462 18.2535 12.7329 22.0517C10.4515 25.9665 9.24561 30.4442 9.24561 35.0004C9.24561 49.2013 20.7989 60.7546 34.9999 60.7546C49.2008 60.7546 60.7541 49.2013 60.7541 35.0004Z" fill="black"/>
<path d="M13.3472 35.0004C13.3472 46.9397 23.0605 56.653 34.9999 56.653C46.9392 56.653 56.6526 46.9397 56.6526 35.0004C56.6526 23.061 46.9392 13.3477 34.9999 13.3477C23.0605 13.3477 13.3472 23.061 13.3472 35.0004ZM34.9999 15.3984C45.8084 15.3984 54.6018 24.1918 54.6018 35.0004C54.6018 45.8089 45.8084 54.6023 34.9999 54.6023C24.1913 54.6023 15.3979 45.8089 15.3979 35.0004C15.3979 24.1918 24.1913 15.3984 34.9999 15.3984Z" fill="black"/>
<path d="M35.0002 47.8399C42.0799 47.8399 47.8396 42.0802 47.8396 35.0005C47.8396 27.9208 42.0799 22.1611 35.0002 22.1611C27.9205 22.1611 22.1606 27.9208 22.1606 35.0005C22.1606 42.0802 27.9205 47.8399 35.0002 47.8399ZM35.0002 24.2119C40.9491 24.2119 45.7888 29.0516 45.7888 35.0005C45.7888 40.9494 40.9491 45.7891 35.0002 45.7891C29.0513 45.7891 24.2114 40.9494 24.2114 35.0005C24.2114 29.0516 29.0513 24.2119 35.0002 24.2119Z" fill="black"/>
<path d="M38.1555 36.8324C40.5012 36.8324 42.4095 34.9239 42.4095 32.5782C42.4095 30.2325 40.5012 28.3242 38.1555 28.3242C35.8098 28.3242 33.9014 30.2325 33.9014 32.5782C33.9014 34.9239 35.8098 36.8324 38.1555 36.8324ZM38.1555 30.375C39.3704 30.375 40.3587 31.3633 40.3587 32.5782C40.3587 33.7932 39.3704 34.7816 38.1555 34.7816C36.9405 34.7816 35.9523 33.7932 35.9523 32.5782C35.9523 31.3633 36.9405 30.375 38.1555 30.375Z" fill="black"/>
</svg>
