<svg width="70" height="70" viewBox="0 0 70 70" fill="none" xmlns="http://www.w3.org/2000/svg">
<g clip-path="url(#clip0_0_110)">
<path d="M66.2127 0H61.7064C61.14 0 60.681 0.459102 60.681 1.02539C60.681 1.59168 61.14 2.05078 61.7064 2.05078H66.2127C67.1701 2.05078 67.949 2.82967 67.949 3.78711V19.3348H64.475V6.5502C64.475 5.98391 64.016 5.5248 63.4496 5.5248H50.665V2.05078H56.9076C57.474 2.05078 57.933 1.59168 57.933 1.02539C57.933 0.459102 57.474 0 56.9076 0H49.6396C49.0732 0 48.6143 0.459102 48.6143 1.02539V6.5502C48.6143 7.11648 49.0732 7.57559 49.6396 7.57559H62.4242V20.3602C62.4242 20.9264 62.8832 21.3855 63.4496 21.3855H68.9744C69.5408 21.3855 69.9998 20.9264 69.9998 20.3602V3.78711C69.9998 1.69887 68.3009 0 66.2127 0Z" fill="black"/>
<path d="M1.02539 21.386H6.54965C7.11607 21.386 7.57504 20.9269 7.57504 20.3606V7.57518H20.3606C20.927 7.57518 21.386 7.11607 21.386 6.54979V1.02539C21.386 0.459102 20.927 0 20.3606 0H3.78752C1.69914 0 0 1.69914 0 3.78752V20.3606C0 20.9269 0.458965 21.386 1.02539 21.386ZM2.05078 3.78752C2.05078 2.82994 2.8298 2.05078 3.78752 2.05078H19.3352V5.52439H6.54965C5.98322 5.52439 5.52426 5.9835 5.52426 6.54979V19.3352H2.05078V3.78752Z" fill="black"/>
<path d="M68.9748 48.6143H63.4506C62.8842 48.6143 62.4252 49.0734 62.4252 49.6396V62.4251H49.6396C49.0732 62.4251 48.6143 62.8842 48.6143 63.4504V68.9748C48.6143 69.5411 49.0732 70.0002 49.6396 70.0002H66.2127C68.3011 70.0002 70.0002 68.3011 70.0002 66.2127V49.6396C70.0002 49.0734 69.5413 48.6143 68.9748 48.6143ZM67.9495 66.2127C67.9495 67.1703 67.1704 67.9495 66.2127 67.9495H50.665V64.4758H63.4506C64.017 64.4758 64.476 64.0167 64.476 63.4504V50.665H67.9495V66.2127Z" fill="black"/>
<path d="M20.3602 62.4242H17.2648C16.6984 62.4242 16.2395 62.8833 16.2395 63.4496C16.2395 64.0159 16.6984 64.475 17.2648 64.475H19.3348V67.949H3.78711C2.82967 67.949 2.05078 67.1701 2.05078 66.2127V50.665H5.5248V63.4496C5.5248 64.0159 5.98377 64.475 6.5502 64.475H12.466C13.0324 64.475 13.4914 64.0159 13.4914 63.4496C13.4914 62.8833 13.0324 62.4242 12.466 62.4242H7.57559V49.6396C7.57559 49.0734 7.11662 48.6143 6.5502 48.6143H1.02539C0.458965 48.6143 0 49.0734 0 49.6396V66.2127C0 68.3009 1.69887 69.9998 3.78711 69.9998H20.3602C20.9266 69.9998 21.3855 69.5407 21.3855 68.9744V63.4496C21.3855 62.8833 20.9264 62.4242 20.3602 62.4242Z" fill="black"/>
<path d="M59.481 36.0254H65.3836C65.95 36.0254 66.409 35.5663 66.409 35C66.409 34.4337 65.95 33.9746 65.3836 33.9746H59.481C58.9556 21.2772 48.7229 11.0445 36.0253 10.5189V4.61621C36.0253 4.04992 35.5663 3.59082 34.9999 3.59082C34.4335 3.59082 33.9745 4.04992 33.9745 4.61621V10.5184C28.0171 10.7639 22.4039 13.1434 18.0725 17.2837C17.6631 17.675 17.6485 18.324 18.0398 18.7335C18.4311 19.143 19.08 19.1576 19.4896 18.7662C23.6841 14.7568 29.1904 12.5481 34.9946 12.5467C34.9963 12.5467 34.9981 12.547 34.9999 12.547C35.0017 12.547 35.0035 12.5467 35.0052 12.5467C47.3814 12.5496 57.4498 22.6176 57.4532 34.9936C57.4532 34.9958 57.453 34.9978 57.453 34.9999C57.453 35.002 57.4532 35.0041 57.4532 35.0062C57.4498 47.3822 47.3814 57.4502 35.0052 57.4531C35.0035 57.4531 35.0017 57.4528 34.9999 57.4528C34.9981 57.4528 34.9963 57.4531 34.9946 57.4531C22.6184 57.4502 12.55 47.3822 12.5466 35.0062C12.5466 35.004 12.5469 35.002 12.5469 34.9999C12.5469 34.9976 12.5466 34.9955 12.5466 34.9932C12.5479 30.413 13.9198 26.0075 16.5142 22.2528C16.8361 21.7869 16.7194 21.1481 16.2536 20.8263C15.7874 20.5043 15.1489 20.6212 14.8271 21.087C12.1877 24.9069 10.708 29.3429 10.5174 33.9746H4.61621C4.04979 33.9746 3.59082 34.4337 3.59082 35C3.59082 35.5663 4.04979 36.0254 4.61621 36.0254H10.5188C11.0443 48.7229 21.2769 58.9556 33.9745 59.4812V65.3839C33.9745 65.9502 34.4335 66.4093 34.9999 66.4093C35.5663 66.4093 36.0253 65.9502 36.0253 65.3839V59.4812C48.7229 58.9556 58.9556 48.7229 59.481 36.0254Z" fill="black"/>
<path d="M34.9994 29.2783C31.8448 29.2783 29.2783 31.8448 29.2783 34.9994C29.2783 38.1541 31.8447 40.7206 34.9994 40.7206C38.1542 40.7206 40.7206 38.1541 40.7206 34.9994C40.7206 31.8448 38.1541 29.2783 34.9994 29.2783ZM34.9994 38.6698C32.9756 38.6698 31.3291 37.0233 31.3291 34.9994C31.3291 32.9756 32.9756 31.3291 34.9994 31.3291C37.0233 31.3291 38.6698 32.9756 38.6698 34.9994C38.6698 37.0233 37.0233 38.6698 34.9994 38.6698Z" fill="black"/>
<path d="M46.2455 24.7803C46.2455 24.214 45.7866 23.7549 45.2202 23.7549H40.5244C39.958 23.7549 39.499 24.214 39.499 24.7803C39.499 25.3466 39.958 25.8057 40.5244 25.8057H44.1948V29.4759C44.1948 30.0422 44.6537 30.5013 45.2202 30.5013C45.7866 30.5013 46.2455 30.0422 46.2455 29.4759V24.7803Z" fill="black"/>
<path d="M29.476 23.7549H24.7803C24.2138 23.7549 23.7549 24.214 23.7549 24.7803V29.4759C23.7549 30.0422 24.2138 30.5013 24.7803 30.5013C25.3467 30.5013 25.8057 30.0422 25.8057 29.4759V25.8057H29.476C30.0424 25.8057 30.5014 25.3466 30.5014 24.7803C30.5014 24.214 30.0423 23.7549 29.476 23.7549Z" fill="black"/>
<path d="M45.2202 39.499C44.6537 39.499 44.1948 39.9581 44.1948 40.5244V44.1946H40.5244C39.958 44.1946 39.499 44.6537 39.499 45.22C39.499 45.7863 39.958 46.2454 40.5244 46.2454H45.2202C45.7866 46.2454 46.2455 45.7863 46.2455 45.22V40.5244C46.2455 39.9581 45.7866 39.499 45.2202 39.499Z" fill="black"/>
<path d="M23.7549 45.22C23.7549 45.7863 24.2138 46.2454 24.7803 46.2454H29.476C30.0424 46.2454 30.5014 45.7863 30.5014 45.22C30.5014 44.6537 30.0424 44.1946 29.476 44.1946H25.8057V40.5244C25.8057 39.9581 25.3467 39.499 24.7803 39.499C24.2138 39.499 23.7549 39.9581 23.7549 40.5244V45.22Z" fill="black"/>
</g>
<defs>
<clipPath id="clip0_0_110">
<rect width="70" height="70" fill="white"/>
</clipPath>
</defs>
</svg>
