<svg width="70" height="70" viewBox="0 0 70 70" fill="none" xmlns="http://www.w3.org/2000/svg">
<path d="M21.8751 67.8125H48.1251C48.4152 67.8125 48.6934 67.6973 48.8985 67.4921C49.1036 67.287 49.2189 67.0088 49.2189 66.7188V63.4375H51.4064C51.6964 63.4375 51.9746 63.3223 52.1798 63.1171C52.3849 62.912 52.5001 62.6338 52.5001 62.3438V53.5938H54.6876C54.9777 53.5938 55.2559 53.4785 55.461 53.2734C55.6661 53.0683 55.7814 52.7901 55.7814 52.5V48.125C55.7814 47.8349 55.6661 47.5567 55.461 47.3516C55.2559 47.1465 54.9777 47.0312 54.6876 47.0312H52.5001V40.4688H54.6876C54.9777 40.4688 55.2559 40.3535 55.461 40.1484C55.6661 39.9433 55.7814 39.6651 55.7814 39.375V16.4062C55.7814 16.1162 55.6661 15.838 55.461 15.6329C55.2559 15.4277 54.9777 15.3125 54.6876 15.3125H53.7913L55.7666 3.46104C55.7927 3.30434 55.7844 3.14384 55.7422 2.99069C55.7 2.83754 55.6249 2.69543 55.5222 2.57422C55.4195 2.45302 55.2917 2.35564 55.1476 2.28886C55.0034 2.22207 54.8465 2.18748 54.6876 2.1875H49.2189C48.9893 2.18748 48.7655 2.2597 48.5793 2.39392C48.3931 2.52814 48.2538 2.71757 48.1812 2.93535L47.3367 5.46875H44.4747C43.5021 3.55373 41.436 2.1875 39.3751 2.1875H30.6251C28.5645 2.1875 26.4984 3.55373 25.5255 5.46875H22.6634L21.8191 2.93535C21.7465 2.71757 21.6072 2.52814 21.4209 2.39392C21.2347 2.2597 21.0109 2.18748 20.7814 2.1875H15.3126C15.1538 2.18748 14.9968 2.22207 14.8527 2.28886C14.7085 2.35564 14.5807 2.45302 14.478 2.57422C14.3753 2.69543 14.3003 2.83754 14.258 2.99069C14.2158 3.14384 14.2075 3.30434 14.2336 3.46104L16.2089 15.3125H15.3126C15.0225 15.3125 14.7443 15.4277 14.5392 15.6329C14.3341 15.838 14.2189 16.1162 14.2189 16.4062V39.375C14.2189 39.6651 14.3341 39.9433 14.5392 40.1484C14.7443 40.3535 15.0225 40.4688 15.3126 40.4688H17.5001V47.0312H15.3126C15.0225 47.0312 14.7443 47.1465 14.5392 47.3516C14.3341 47.5567 14.2189 47.8349 14.2189 48.125V52.5C14.2189 52.7901 14.3341 53.0683 14.5392 53.2734C14.7443 53.4785 15.0225 53.5938 15.3126 53.5938H17.5001V62.3438C17.5001 62.6338 17.6153 62.912 17.8205 63.1171C18.0256 63.3223 18.3038 63.4375 18.5939 63.4375H20.7814V66.7188C20.7814 67.0088 20.8966 67.287 21.1017 67.4921C21.3068 67.6973 21.585 67.8125 21.8751 67.8125ZM45.9376 61.25H24.0626V57.9688H45.9376V61.25ZM47.0314 65.625H22.9689V63.4375H47.0314V65.625ZM16.4064 21.875H18.5939V33.9062H16.4064V21.875ZM53.5939 19.6875H16.4064V17.5H53.5939V19.6875ZM20.7814 21.875H22.9689V33.9062H20.7814V21.875ZM25.1564 21.875H27.3439V33.9062H25.1564V21.875ZM29.5314 21.875H31.7189V33.9062H29.5314V21.875ZM33.9064 21.875H36.0939V33.9062H33.9064V21.875ZM38.2814 21.875H40.4689V33.9062H38.2814V21.875ZM42.6564 21.875H44.8439V33.9062H42.6564V21.875ZM47.0314 21.875H49.2189V33.9062H47.0314V21.875ZM51.4064 21.875H53.5939V33.9062H51.4064V21.875ZM16.6036 4.375H19.993L20.8374 6.9084C20.91 7.12618 21.0493 7.31561 21.2355 7.44983C21.4218 7.58405 21.6455 7.65627 21.8751 7.65625H26.2501C26.4797 7.65627 26.7034 7.58405 26.8897 7.44983C27.0759 7.31561 27.2152 7.12618 27.2878 6.9084C27.754 5.51141 29.2504 4.375 30.6251 4.375H39.3751C40.7498 4.375 42.2462 5.51141 42.7124 6.9084C42.785 7.12618 42.9243 7.31561 43.1105 7.44983C43.2968 7.58405 43.5205 7.65627 43.7501 7.65625H48.1251C48.3547 7.65627 48.5784 7.58405 48.7647 7.44983C48.9509 7.31561 49.0902 7.12618 49.1628 6.9084L50.0072 4.375H53.3966L51.5736 15.3125H18.4267L16.6036 4.375ZM16.4064 36.0938H53.5939V38.2812H16.4064V36.0938ZM19.6876 40.4688H50.3126V47.0312H19.6876V40.4688ZM16.4064 49.2188H53.5939V51.4062H16.4064V49.2188ZM19.6876 53.5938H50.3126V61.25H48.1251V56.875C48.1251 56.5849 48.0099 56.3067 47.8048 56.1016C47.5996 55.8965 47.3214 55.7812 47.0314 55.7812H22.9689C22.6788 55.7812 22.4006 55.8965 22.1955 56.1016C21.9903 56.3067 21.8751 56.5849 21.8751 56.875V61.25H19.6876V53.5938Z" fill="black"/>
<path d="M47.0312 42.6562H22.9688C22.6787 42.6562 22.4005 42.7716 22.1954 42.9767C21.9902 43.1818 21.875 43.4599 21.875 43.75C21.875 44.0401 21.9902 44.3183 22.1954 44.5234C22.4005 44.7285 22.6787 44.8438 22.9688 44.8438H47.0312C47.3213 44.8438 47.5995 44.7285 47.8046 44.5234C48.0098 44.3183 48.125 44.0401 48.125 43.75C48.125 43.4599 48.0098 43.1818 47.8046 42.9767C47.5995 42.7716 47.3213 42.6562 47.0312 42.6562Z" fill="black"/>
</svg>
